G04 Layer_Color=16711935*
%FSLAX42Y42*%
%MOMM*%
G71*
G01*
G75*
%ADD45C,0.00*%
D45*
X4625Y-2500D02*
G03*
X4625Y-2500I-125J0D01*
G01*
X4625Y-4300D02*
G03*
X4625Y-4300I-125J0D01*
G01*
X4470Y-893D02*
G03*
X4611Y-1813I252J-432D01*
G01*
X5000Y-2300D02*
G03*
X4611Y-1813I-500J-0D01*
G01*
X4450Y-5000D02*
G03*
X5000Y-4500I25J525D01*
G01*
X-5000D02*
G03*
X-4550Y-5000I475J-25D01*
G01*
X-4611Y-1813D02*
G03*
X-5000Y-2300I111J-487D01*
G01*
X-4611Y-1813D02*
G03*
X-4470Y-893I-111J487D01*
G01*
D02*
G03*
X-5000Y-750I-530J-907D01*
G01*
X-3437Y-907D02*
G03*
X-5000Y-0I-1563J-893D01*
G01*
X-3437Y-907D02*
G03*
X-2595Y-949I434J248D01*
G01*
X-592Y1870D02*
G03*
X-500Y2160I-408J290D01*
G01*
Y4000D02*
G03*
X-1000Y4500I-500J0D01*
G01*
X1000D02*
G03*
X500Y4000I0J-500D01*
G01*
Y2160D02*
G03*
X592Y1870I500J0D01*
G01*
X2595Y-949D02*
G03*
X3437Y-907I408J290D01*
G01*
X5000Y-0D02*
G03*
X3437Y-907I-0J-1800D01*
G01*
X5000Y-750D02*
G03*
X4470Y-893I0J-1050D01*
G01*
X-4375Y-2500D02*
G03*
X-4375Y-2500I-125J0D01*
G01*
X-4375Y-4300D02*
G03*
X-4375Y-4300I-125J0D01*
G01*
X4625D02*
G03*
X4625Y-4300I-125J0D01*
G01*
X5000Y-4500D02*
Y-2300D01*
X-4550Y-5000D02*
X4450D01*
X-5000Y-4500D02*
Y-2300D01*
Y-750D02*
Y-0D01*
X-2595Y-949D02*
X-592Y1870D01*
X-500Y2160D02*
Y4000D01*
X-1500Y4500D02*
X-1000D01*
X-1500D02*
Y5000D01*
X1500D01*
Y4500D02*
Y5000D01*
X1000Y4500D02*
X1500D01*
X500Y2160D02*
Y4000D01*
X592Y1870D02*
X2595Y-949D01*
X5000Y-750D02*
Y-0D01*
M02*
