G04 Layer_Physical_Order=2*
G04 Layer_Color=16711680*
%FSLAX42Y42*%
%MOMM*%
G71*
G01*
G75*
%ADD11C,0.41*%
%ADD12C,0.51*%
%ADD13O,3.05X1.52*%
%ADD14C,1.20*%
%ADD15R,1.20X1.20*%
%ADD16O,1.20X2.40*%
%ADD17C,1.68*%
%ADD18R,1.68X1.68*%
%ADD19O,1.52X3.05*%
%ADD20C,1.42*%
%ADD21P,2.26X8X22.5*%
%ADD22C,3.00*%
%ADD23C,1.20*%
%ADD24C,0.65*%
D11*
X-2200Y-1250D02*
X-2150D01*
X-3600D02*
X-2200D01*
Y-650D01*
Y-1800D02*
Y-1250D01*
X978Y-1707D02*
X1000Y-1728D01*
Y-2050D02*
Y-1728D01*
X700Y-2350D02*
X1000Y-2050D01*
X50Y-2350D02*
X700D01*
X-100Y-120D02*
X-38Y-183D01*
X-100Y-120D02*
Y1000D01*
X-900Y4600D02*
X-800D01*
X-1062Y4762D02*
X-900Y4600D01*
X-1062Y4762D02*
Y4800D01*
X-1010Y40D02*
X-1000Y50D01*
X-1836Y40D02*
X-1010D01*
X-2000Y-190D02*
X-1836Y40D01*
X-2000Y-350D02*
Y-190D01*
X900Y-750D02*
X2050D01*
X2750Y-1450D01*
X3400D01*
X4195Y-655D01*
X4779D01*
X3000Y-2398D02*
X3022Y-2420D01*
X3000Y-2398D02*
Y-2200D01*
X2050Y-1250D02*
X3000Y-2200D01*
X1300Y-1250D02*
X2050D01*
X-1400D02*
X850D01*
X-1816Y-1666D02*
X-1400Y-1250D01*
X-1816Y-1707D02*
Y-1666D01*
X2750Y-2402D02*
X2768Y-2420D01*
X2750Y-2402D02*
Y-2100D01*
X2050Y-1400D02*
X2750Y-2100D01*
X1350Y-1400D02*
X2050D01*
X-1350D02*
X850D01*
X1650Y-1797D02*
X1740Y-1707D01*
X1650Y-2300D02*
Y-1797D01*
Y-2300D02*
X2422Y-3072D01*
Y-4366D02*
Y-3072D01*
X278Y996D02*
X350Y924D01*
Y-450D02*
Y924D01*
Y-450D02*
X1232Y-1332D01*
Y-1707D02*
Y-1332D01*
X-50Y-1719D02*
X-38Y-1707D01*
X-50Y-2150D02*
Y-1719D01*
X-300Y-2400D02*
X-292Y-2392D01*
Y-1707D01*
X130Y-3254D02*
X200Y-3184D01*
Y-2950D01*
X550Y-2600D01*
X450Y-2100D02*
X470Y-2080D01*
Y-1707D01*
X700Y-1731D02*
X724Y-1707D01*
X700Y-2100D02*
Y-1731D01*
X384Y-3216D02*
X750Y-2850D01*
X384Y-3254D02*
Y-3216D01*
X200Y-2150D02*
X216Y-2134D01*
Y-1707D01*
X-1550Y250D02*
X-1050Y750D01*
Y900D01*
X-954Y996D01*
X-372D01*
X505Y-4400D02*
X892Y-4787D01*
X500Y-4400D02*
X505D01*
X2600Y-2700D02*
X3150D01*
X2514Y-2420D02*
X2550Y-2456D01*
Y-2650D02*
Y-2456D01*
Y-2650D02*
X2600Y-2700D01*
X3150D02*
X3300Y-2550D01*
Y-2350D01*
X2800Y-1850D02*
X3300Y-2350D01*
X2800Y-1850D02*
Y-1650D01*
X2750Y-1250D02*
X2965D01*
X892Y-3692D02*
X1100Y-3900D01*
X1600D01*
X2150Y-650D02*
Y-401D01*
X3250Y-1250D02*
X4076Y-424D01*
X950Y400D02*
Y1150D01*
Y400D02*
X1106Y244D01*
X1692D01*
X2150Y-401D01*
Y-650D02*
X2750Y-1250D01*
X2965D02*
X3250D01*
X4076Y-424D02*
X4779Y-147D01*
X716Y4566D02*
Y4800D01*
X2422Y-4818D02*
X3072D01*
X-1050Y-900D02*
Y-225D01*
X-1250Y-1100D02*
X-1050Y-900D01*
X-2150Y-1250D02*
X-1950Y-1450D01*
X-4449Y-401D02*
X-3600Y-1250D01*
X-4746Y-401D02*
X-4449D01*
X-600Y-4950D02*
X1050D01*
X-650Y-4822D02*
X-632Y-4804D01*
X-650Y-4900D02*
Y-4822D01*
Y-4900D02*
X-600Y-4950D01*
X1050D02*
X1182Y-4818D01*
X2422D01*
X-2200Y-1800D02*
X-1600Y-2400D01*
X-1073Y-202D02*
X-1054Y-183D01*
X-1321Y-450D02*
X-1073Y-202D01*
X-2000Y-450D02*
X-1321D01*
X-2200Y-650D02*
X-2000Y-450D01*
X-1600Y-2400D02*
X-700D01*
Y-2700D02*
X-146Y-3254D01*
X-124D01*
X-1054Y-183D02*
X-671Y200D01*
X-250D01*
X-0D02*
X100Y300D01*
Y1000D01*
X462Y4662D02*
Y4800D01*
X-3Y1102D02*
X100Y1000D01*
X-3Y1102D02*
Y4198D01*
X462Y4662D01*
X-378Y1278D02*
X-100Y1000D01*
X-378Y1278D02*
Y4177D01*
X-800Y4600D02*
X-378Y4177D01*
X365Y1735D02*
X950Y1150D01*
X365Y1735D02*
Y4215D01*
X716Y4566D01*
X-1073Y-202D02*
X-1050Y-225D01*
D12*
X2200Y-4000D02*
Y-3200D01*
X1600Y-4527D02*
X1627Y-4500D01*
X1700D01*
X2200Y-4000D01*
X1900Y-2900D02*
X2200Y-3200D01*
X1600Y-2900D02*
X1900D01*
X1600Y-3100D02*
X1900D01*
X2100Y-3300D01*
Y-3800D02*
Y-3300D01*
X1627Y-4273D02*
X2100Y-3800D01*
X1600Y-4273D02*
X1627D01*
X-1600D02*
X-1573Y-4300D01*
X-300D01*
X130Y-4730D01*
Y-4804D02*
Y-4730D01*
X-1700Y-3900D02*
X-1600D01*
X-2100Y-4300D02*
X-1700Y-3900D01*
X-1600Y-4527D02*
X-1527Y-4600D01*
X-300D01*
X-124Y-4776D01*
Y-4804D02*
Y-4776D01*
X892Y-4804D02*
Y-4787D01*
Y-3692D01*
Y-3254D01*
X900Y-3246D01*
Y-2700D01*
X700Y-2500D02*
X900Y-2700D01*
X-900Y-2500D02*
X700D01*
X-1300Y-2900D02*
X-900Y-2500D01*
X-1600Y-2900D02*
X-1300D01*
X-3200D02*
X-1600D01*
D13*
X1600Y-4273D02*
D03*
Y-4527D02*
D03*
X-1600Y-4273D02*
D03*
Y-4527D02*
D03*
X-4746Y-147D02*
D03*
Y-401D02*
D03*
Y-655D02*
D03*
X4779D02*
D03*
Y-401D02*
D03*
Y-147D02*
D03*
X3072Y-4818D02*
D03*
Y-4366D02*
D03*
X2422Y-4818D02*
D03*
Y-4366D02*
D03*
D14*
X-2968Y-2052D02*
D03*
Y-1798D02*
D03*
X-1943Y-1199D02*
D03*
Y-945D02*
D03*
Y-691D02*
D03*
X-1689Y-1199D02*
D03*
Y-945D02*
D03*
Y-691D02*
D03*
D15*
X-2968Y-1544D02*
D03*
D16*
X-800Y-183D02*
D03*
X-546D02*
D03*
X-292D02*
D03*
X-38D02*
D03*
X-1054D02*
D03*
X1232D02*
D03*
X1486D02*
D03*
X1232Y-1707D02*
D03*
X1486D02*
D03*
X1740D02*
D03*
Y-183D02*
D03*
X978D02*
D03*
X724D02*
D03*
X470D02*
D03*
X216D02*
D03*
X-1308D02*
D03*
X-1562D02*
D03*
X-1816D02*
D03*
X978Y-1707D02*
D03*
X724D02*
D03*
X470D02*
D03*
X216D02*
D03*
X-38D02*
D03*
X-292D02*
D03*
X-546D02*
D03*
X-800D02*
D03*
X-1054D02*
D03*
X-1308D02*
D03*
X-1562D02*
D03*
X-1816D02*
D03*
D17*
X892Y-3254D02*
D03*
X638D02*
D03*
X384D02*
D03*
X130D02*
D03*
X-124D02*
D03*
X-378D02*
D03*
X-632D02*
D03*
X892Y-4804D02*
D03*
X638D02*
D03*
X384D02*
D03*
X130D02*
D03*
X-124D02*
D03*
X-378D02*
D03*
X-632D02*
D03*
X-886Y-3254D02*
D03*
X-2645Y-4601D02*
D03*
X-3153D02*
D03*
X-2899D02*
D03*
D18*
X-886Y-4804D02*
D03*
D19*
X-1316Y4800D02*
D03*
X-1062D02*
D03*
X-808D02*
D03*
X-554D02*
D03*
X-300D02*
D03*
X-46D02*
D03*
X208D02*
D03*
X462D02*
D03*
X716D02*
D03*
X3022Y-2420D02*
D03*
X2768D02*
D03*
X2514D02*
D03*
X2260D02*
D03*
D20*
X-1600Y-2900D02*
D03*
Y-3100D02*
D03*
Y-3300D02*
D03*
Y-3500D02*
D03*
Y-3700D02*
D03*
Y-3900D02*
D03*
X1600D02*
D03*
Y-3700D02*
D03*
Y-3500D02*
D03*
Y-3300D02*
D03*
Y-3100D02*
D03*
Y-2900D02*
D03*
D21*
X278Y996D02*
D03*
X-372D02*
D03*
D22*
X-4500Y-2500D02*
D03*
X4500D02*
D03*
X-4500Y-4300D02*
D03*
X4500D02*
D03*
D23*
X-127Y3060D02*
D03*
X126D02*
D03*
Y2900D02*
D03*
X-127D02*
D03*
X126Y3220D02*
D03*
X-127D02*
D03*
X126Y3380D02*
D03*
X-127D02*
D03*
X126Y3540D02*
D03*
X-127D02*
D03*
X126Y3700D02*
D03*
X-127D02*
D03*
Y2740D02*
D03*
X126D02*
D03*
X-127Y2580D02*
D03*
X126D02*
D03*
X-127Y2420D02*
D03*
X126D02*
D03*
X-127Y2100D02*
D03*
X126D02*
D03*
Y2260D02*
D03*
X-127D02*
D03*
D24*
X50Y-2350D02*
D03*
X-1000Y50D02*
D03*
X-2000Y-350D02*
D03*
X900Y-750D02*
D03*
X1300Y-1250D02*
D03*
X850D02*
D03*
X1350Y-1400D02*
D03*
X850D02*
D03*
X-1350D02*
D03*
X-50Y-2150D02*
D03*
X-300Y-2400D02*
D03*
X550Y-2600D02*
D03*
X450Y-2100D02*
D03*
X700D02*
D03*
X750Y-2850D02*
D03*
X200Y-2150D02*
D03*
X-2100Y-4300D02*
D03*
X-1550Y250D02*
D03*
X500Y-4400D02*
D03*
X2800Y-1650D02*
D03*
X2965Y-1250D02*
D03*
X-3200Y-2900D02*
D03*
X-1250Y-1100D02*
D03*
X-1950Y-1450D02*
D03*
X-700Y-2400D02*
D03*
Y-2700D02*
D03*
X-250Y200D02*
D03*
X-0D02*
D03*
M02*
