M48
;Layer_Color=9474304
;FILE_FORMAT=4:2
METRIC,LZ
;TYPE=PLATED
T1F00S00C0.35
T2F00S00C0.60
T3F00S00C0.70
T4F00S00C0.80
T5F00S00C0.90
T6F00S00C0.91
T7F00S00C1.02
T8F00S00C2.50
%
T01
X-0021Y-0043
X0005Y-0044
X00075Y-00285
X00055Y-0026
X00045Y-0021
X0007
X00085Y-0014
Y-00125
X0013
X00135Y-0014
X0009Y-00075
X002965Y-00125
X0028Y-00165
X0002Y-00215
X-00005
X00005Y-00235
X-0003Y-0024
X-0007
Y-0027
X-00135Y-0014
X-00125Y-0011
X-00195Y-00145
X-002Y-00035
X-00155Y00025
X-001Y00005
X-00025Y0002
X-0
X-0032Y-0029
T02
X-000632Y-004804
X-000378
X-000124
X00013
X000384
X000638
X000892
Y-003254
X000638
X000384
X00013
X-000124
X-000378
X-000632
X-000886
T03
X-000886Y-004804
T04
X-0016Y-0039
Y-0037
X0016
Y-0039
Y-0035
Y-0033
Y-0031
Y-0029
X001486Y-001707
X001232
X000978
X000724
X00047
X00174
Y-000183
X001486
X001232
X000978
X000724
X00047
X000216
X-000038
X-000292
X-000546
X-0008
X-001054
X-001308
X-001562
X-001816
X-001943Y-000691
Y-000945
Y-001199
X-001689
Y-000945
Y-000691
X-001562Y-001707
X-001308
X-001054
X-0008
X-000546
X-000292
X-000038
X000216
X-001816
X-002968Y-001798
Y-002052
Y-001544
X-0016Y-0029
Y-0031
Y-0033
Y-0035
X-000127Y0021
Y00226
Y00242
Y00258
Y00274
Y0029
Y00306
Y00322
Y00338
Y00354
Y0037
X000126
Y00354
Y00338
Y00322
Y00306
Y0029
Y00274
Y00258
Y00242
Y00226
Y0021
T05
X-003153Y-004601
X-002899
X-002645
T06
X-000372Y000996
X000278
T07
X-0016Y-004527
Y-004273
X0016
Y-004527
X002422Y-004366
Y-004818
X003072
Y-004366
X004779Y-000655
Y-000401
Y-000147
X003022Y-00242
X002768
X002514
X00226
X-004746Y-000655
Y-000401
Y-000147
X000462Y0048
X000716
X000208
X-000046
X-0003
X-000554
X-000808
X-001062
X-001316
T08
X-0045Y-0043
X0045
Y-0025
X-0045
M30
