G04 Layer_Physical_Order=1*
G04 Layer_Color=255*
%FSLAX42Y42*%
%MOMM*%
G71*
G01*
G75*
%ADD10R,1.80X1.60*%
%ADD11C,0.41*%
%ADD12C,0.51*%
%ADD13O,3.05X1.52*%
%ADD14C,1.20*%
%ADD15R,1.20X1.20*%
%ADD16O,1.20X2.40*%
%ADD17C,1.68*%
%ADD18R,1.68X1.68*%
%ADD19O,1.52X3.05*%
%ADD20C,1.42*%
%ADD21P,2.26X8X22.5*%
%ADD22C,3.00*%
%ADD23C,1.20*%
%ADD24C,0.65*%
D10*
X3485Y-4734D02*
D03*
Y-4450D02*
D03*
D11*
X3334Y-4734D02*
X3485D01*
X3200Y-4600D02*
X3334Y-4734D01*
X2935Y-3900D02*
X3485Y-4450D01*
X-378Y-2778D02*
X50Y-2350D01*
X-378Y-3254D02*
Y-2778D01*
X-50Y4796D02*
X-46Y4800D01*
X-50Y4500D02*
Y4796D01*
X650Y200D02*
Y1150D01*
Y200D02*
X978Y-128D01*
Y-183D02*
Y-128D01*
X700Y-158D02*
X724Y-183D01*
X700Y-158D02*
Y-0D01*
X550Y150D02*
X700Y-0D01*
X550Y150D02*
Y1100D01*
X-300Y4450D02*
Y4800D01*
X-554D02*
X-500Y4746D01*
Y4500D02*
Y4746D01*
X470Y-183D02*
Y1030D01*
X200Y-166D02*
X216Y-183D01*
X200Y-166D02*
Y-0D01*
X100Y100D02*
X200Y-0D01*
X100Y100D02*
Y1000D01*
X-808Y4708D02*
Y4800D01*
X-300Y-174D02*
X-292Y-183D01*
X-300Y-174D02*
Y-0D01*
X-700Y400D02*
X-300Y-0D01*
X-700Y400D02*
Y1000D01*
X-400Y1300D01*
Y4200D01*
X-800Y4600D02*
X-400Y4200D01*
X-1200Y4600D02*
X-800D01*
X-1316Y4716D02*
X-1200Y4600D01*
X-1316Y4716D02*
Y4800D01*
X-2300Y-650D02*
X-2000Y-350D01*
X-2800Y-1250D02*
X-2300Y-750D01*
X-778Y50D02*
X-546Y-183D01*
X-1000Y50D02*
X-778D01*
X-2300Y-750D02*
Y-650D01*
X-3600Y-1250D02*
X-2800D01*
X-4703Y-147D02*
X-3600Y-1250D01*
X-4746Y-147D02*
X-4703D01*
X-800Y-183D02*
X-800Y-183D01*
X-800Y-450D02*
Y-183D01*
Y-450D02*
X-500Y-750D01*
X900D01*
X850Y-1250D02*
X1300D01*
X850Y-1400D02*
X1350D01*
X-1562Y-1612D02*
X-1350Y-1400D01*
X-1562Y-1707D02*
Y-1612D01*
X-800Y-1950D02*
Y-1707D01*
X-800Y-1707D01*
X-1300Y-2450D02*
X-800Y-1950D01*
X-1300Y-3100D02*
Y-2450D01*
X-1500Y-3300D02*
X-1300Y-3100D01*
X-1600Y-3300D02*
X-1500D01*
X-546Y-1707D02*
X-500Y-1752D01*
Y-1900D02*
Y-1752D01*
Y-1900D02*
X-450Y-1950D01*
X1250D01*
X1400Y-2100D01*
Y-3350D02*
Y-2100D01*
Y-3350D02*
X1550Y-3500D01*
X1600D01*
X2422Y-4366D02*
X3072D01*
X3200Y-4494D01*
Y-4600D02*
Y-4494D01*
X1450Y-1670D02*
X1486Y-1707D01*
X1450Y-1670D02*
Y-1250D01*
X1100Y-900D02*
X1450Y-1250D01*
X1100Y-900D02*
Y-0D01*
X1050Y50D02*
X1100Y-0D01*
X950Y50D02*
X1050D01*
X750Y250D02*
X950Y50D01*
X750Y250D02*
Y1200D01*
X-886Y-3254D02*
Y-2386D01*
X-150Y-2250D02*
X-50Y-2150D01*
X-750Y-2250D02*
X-150D01*
X-886Y-2386D02*
X-750Y-2250D01*
X-650Y-3236D02*
X-632Y-3254D01*
X-650Y-3236D02*
Y-2900D01*
X-300Y-2550D01*
Y-2400D01*
X450Y-2500D02*
X550Y-2600D01*
X450Y-2500D02*
Y-2100D01*
X700D02*
X750Y-2150D01*
Y-2850D02*
Y-2150D01*
X638Y-3254D02*
X650Y-3242D01*
Y-2850D01*
X200Y-2400D02*
X650Y-2850D01*
X200Y-2400D02*
Y-2150D01*
X50Y-4400D02*
X500D01*
X-354Y-4804D02*
X50Y-4400D01*
X-378Y-4804D02*
X-354D01*
X-4403Y-655D02*
X-3329Y-1729D01*
X-4746Y-655D02*
X-4403D01*
X2800Y-1650D02*
X2965Y-1485D01*
Y-1250D01*
X2600Y-3565D02*
X2935Y-3900D01*
X2600Y-3565D02*
Y-3100D01*
X2514Y-3014D02*
X2600Y-3100D01*
X2514Y-3014D02*
Y-2420D01*
X1600Y-3900D02*
X2935D01*
X-1600Y-2900D02*
Y-2650D01*
X-1054Y-2104D01*
Y-1707D01*
X-1562Y-183D02*
X-1550Y-194D01*
Y-600D02*
Y-194D01*
Y-600D02*
X-1054Y-1096D01*
Y-1707D02*
Y-1096D01*
X-370Y-3500D02*
X-124Y-3254D01*
X-1450Y-3500D02*
X-370D01*
X-1600Y-1450D02*
X-1250Y-1100D01*
X-1950Y-1450D02*
X-1600D01*
X3154Y-4900D02*
X3800D01*
X3072Y-4818D02*
X3154Y-4900D01*
X3800D02*
X3900Y-4800D01*
Y-2400D01*
X3075Y-1575D02*
X3900Y-2400D01*
X4778Y-400D02*
X4779Y-401D01*
X4450Y-400D02*
X4778D01*
X4350Y-500D02*
X4450Y-400D01*
X4150Y-500D02*
X4350D01*
X3075Y-1575D02*
X4150Y-500D01*
X2260Y-2390D02*
X3075Y-1575D01*
X2260Y-2420D02*
Y-2390D01*
X-700Y-2700D02*
Y-2400D01*
X2250Y-2431D02*
X2260Y-2420D01*
X2250Y-2750D02*
Y-2431D01*
X1700Y-3300D02*
X2250Y-2750D01*
X1600Y-3300D02*
X1700D01*
X-650Y-4786D02*
X-632Y-4804D01*
X-650Y-4786D02*
Y-4500D01*
X-1100Y-4050D02*
X-650Y-4500D01*
X-1100Y-4050D02*
Y-3850D01*
X-1450Y-3500D02*
X-1100Y-3850D01*
X-1600Y-3500D02*
X-1450D01*
X-250Y200D02*
X-0D01*
X-1816Y-183D02*
X-1800Y-198D01*
Y-400D02*
Y-198D01*
X-2645Y-1245D02*
X-1800Y-400D01*
X-2645Y-4601D02*
Y-1245D01*
X415Y1535D02*
X750Y1200D01*
X415Y4593D02*
X415Y1535D01*
X208Y4800D02*
X415Y4593D01*
X353Y1448D02*
X650Y1150D01*
X353Y1448D02*
Y4097D01*
X-50Y4500D02*
X353Y4097D01*
X280Y1370D02*
X550Y1100D01*
X280Y1370D02*
Y3870D01*
X-300Y4450D02*
X280Y3870D01*
X-322Y1423D02*
X100Y1000D01*
X-322Y1423D02*
Y4222D01*
X-808Y4708D02*
X-322Y4222D01*
X0Y1500D02*
X470Y1030D01*
X-500Y4500D02*
X-28Y4027D01*
X0Y1500D02*
Y4000D01*
X-148Y4147D02*
X0Y4000D01*
X-1550Y-194D02*
Y250D01*
D12*
X-2968Y-4531D02*
X-2899Y-4601D01*
X-2968Y-4531D02*
Y-2052D01*
X1573Y-4500D02*
X1600Y-4527D01*
X800Y-4500D02*
X1573D01*
X638Y-4662D02*
X800Y-4500D01*
X638Y-4804D02*
Y-4662D01*
X1573Y-4300D02*
X1600Y-4273D01*
X800Y-4300D02*
X1573D01*
X384Y-4716D02*
X800Y-4300D01*
X384Y-4804D02*
Y-4716D01*
X-2000Y-3700D02*
X-1600D01*
X-2100Y-3800D02*
X-2000Y-3700D01*
X-2100Y-4000D02*
Y-3800D01*
Y-4000D02*
X-1827Y-4273D01*
X-1600D01*
X-2100Y-4400D02*
Y-4300D01*
Y-4400D02*
X-1973Y-4527D01*
X-1600D01*
X-3400Y-2700D02*
Y-1800D01*
Y-2700D02*
X-3200Y-2900D01*
X-3400Y-1800D02*
X-3329Y-1729D01*
X-3144Y-1544D01*
X-2968D01*
X-2645Y-4601D02*
X-2442Y-4804D01*
X-886D01*
D13*
X1600Y-4273D02*
D03*
Y-4527D02*
D03*
X-1600Y-4273D02*
D03*
Y-4527D02*
D03*
X-4746Y-147D02*
D03*
Y-401D02*
D03*
Y-655D02*
D03*
X4779D02*
D03*
Y-401D02*
D03*
Y-147D02*
D03*
X3072Y-4818D02*
D03*
Y-4366D02*
D03*
X2422Y-4818D02*
D03*
Y-4366D02*
D03*
D14*
X-2968Y-2052D02*
D03*
Y-1798D02*
D03*
X-1943Y-1199D02*
D03*
Y-945D02*
D03*
Y-691D02*
D03*
X-1689Y-1199D02*
D03*
Y-945D02*
D03*
Y-691D02*
D03*
D15*
X-2968Y-1544D02*
D03*
D16*
X-800Y-183D02*
D03*
X-546D02*
D03*
X-292D02*
D03*
X-38D02*
D03*
X-1054D02*
D03*
X1232D02*
D03*
X1486D02*
D03*
X1232Y-1707D02*
D03*
X1486D02*
D03*
X1740D02*
D03*
Y-183D02*
D03*
X978D02*
D03*
X724D02*
D03*
X470D02*
D03*
X216D02*
D03*
X-1308D02*
D03*
X-1562D02*
D03*
X-1816D02*
D03*
X978Y-1707D02*
D03*
X724D02*
D03*
X470D02*
D03*
X216D02*
D03*
X-38D02*
D03*
X-292D02*
D03*
X-546D02*
D03*
X-800D02*
D03*
X-1054D02*
D03*
X-1308D02*
D03*
X-1562D02*
D03*
X-1816D02*
D03*
D17*
X892Y-3254D02*
D03*
X638D02*
D03*
X384D02*
D03*
X130D02*
D03*
X-124D02*
D03*
X-378D02*
D03*
X-632D02*
D03*
X892Y-4804D02*
D03*
X638D02*
D03*
X384D02*
D03*
X130D02*
D03*
X-124D02*
D03*
X-378D02*
D03*
X-632D02*
D03*
X-886Y-3254D02*
D03*
X-2645Y-4601D02*
D03*
X-3153D02*
D03*
X-2899D02*
D03*
D18*
X-886Y-4804D02*
D03*
D19*
X-1316Y4800D02*
D03*
X-1062D02*
D03*
X-808D02*
D03*
X-554D02*
D03*
X-300D02*
D03*
X-46D02*
D03*
X208D02*
D03*
X462D02*
D03*
X716D02*
D03*
X3022Y-2420D02*
D03*
X2768D02*
D03*
X2514D02*
D03*
X2260D02*
D03*
D20*
X-1600Y-2900D02*
D03*
Y-3100D02*
D03*
Y-3300D02*
D03*
Y-3500D02*
D03*
Y-3700D02*
D03*
Y-3900D02*
D03*
X1600D02*
D03*
Y-3700D02*
D03*
Y-3500D02*
D03*
Y-3300D02*
D03*
Y-3100D02*
D03*
Y-2900D02*
D03*
D21*
X278Y996D02*
D03*
X-372D02*
D03*
D22*
X-4500Y-2500D02*
D03*
X4500D02*
D03*
X-4500Y-4300D02*
D03*
X4500D02*
D03*
D23*
X-127Y3060D02*
D03*
X126D02*
D03*
Y2900D02*
D03*
X-127D02*
D03*
X126Y3220D02*
D03*
X-127D02*
D03*
X126Y3380D02*
D03*
X-127D02*
D03*
X126Y3540D02*
D03*
X-127D02*
D03*
X126Y3700D02*
D03*
X-127D02*
D03*
Y2740D02*
D03*
X126D02*
D03*
X-127Y2580D02*
D03*
X126D02*
D03*
X-127Y2420D02*
D03*
X126D02*
D03*
X-127Y2100D02*
D03*
X126D02*
D03*
Y2260D02*
D03*
X-127D02*
D03*
D24*
X50Y-2350D02*
D03*
X-1000Y50D02*
D03*
X-2000Y-350D02*
D03*
X900Y-750D02*
D03*
X1300Y-1250D02*
D03*
X850D02*
D03*
X1350Y-1400D02*
D03*
X850D02*
D03*
X-1350D02*
D03*
X-50Y-2150D02*
D03*
X-300Y-2400D02*
D03*
X550Y-2600D02*
D03*
X450Y-2100D02*
D03*
X700D02*
D03*
X750Y-2850D02*
D03*
X200Y-2150D02*
D03*
X-2100Y-4300D02*
D03*
X-1550Y250D02*
D03*
X500Y-4400D02*
D03*
X2800Y-1650D02*
D03*
X2965Y-1250D02*
D03*
X-3200Y-2900D02*
D03*
X-1250Y-1100D02*
D03*
X-1950Y-1450D02*
D03*
X-700Y-2400D02*
D03*
Y-2700D02*
D03*
X-250Y200D02*
D03*
X-0D02*
D03*
M02*
